<?xml version="1.0" standalone="no"?>
<!DOCTYPE svg PUBLIC "-//W3C//DTD SVG 20010904//EN"
 "http://www.w3.org/TR/2001/REC-SVG-20010904/DTD/svg10.dtd">
<svg version="1.0" xmlns="http://www.w3.org/2000/svg"
 width="200.000000pt" height="200.000000pt" viewBox="0 0 200.000000 200.000000"
 preserveAspectRatio="xMidYMid meet">
<metadata>
Created by potrace 1.16, written by Peter Selinger 2001-2019
</metadata>
<g transform="translate(0.000000,200.000000) scale(0.100000,-0.100000)"
fill="#000000" stroke="none">
<path d="M841 1199 c-13 -11 -31 -19 -41 -19 -38 0 -54 -64 -20 -80 65 -30 75
-38 78 -60 5 -36 20 -50 53 -50 21 0 32 7 40 24 16 33 -1 58 -48 71 -33 9 -38
15 -41 45 -3 23 2 38 13 47 15 10 16 14 3 26 -12 12 -17 12 -37 -4z"/>
<path d="M430 795 l0 -76 63 3 62 3 0 70 0 70 -62 3 -63 3 0 -76z"/>
<path d="M580 795 l0 -75 60 0 c53 0 60 2 60 19 0 11 -4 23 -10 26 -5 3 -10
17 -10 30 0 13 5 27 10 30 6 3 10 15 10 26 0 17 -7 19 -60 19 l-60 0 0 -75z"/>
<path d="M710 795 c0 -73 1 -75 24 -75 20 0 25 6 29 33 l4 32 13 -32 c10 -24
21 -33 37 -33 22 0 23 4 23 75 0 73 -1 75 -25 75 -17 0 -25 -6 -25 -17 0 -15
-1 -15 -18 0 -10 10 -28 17 -40 17 -21 0 -22 -5 -22 -75z"/>
<path d="M914 835 c-7 -19 -14 -53 -14 -75 0 -36 2 -40 25 -40 16 0 25 6 25
15 0 8 7 15 15 15 8 0 15 -7 15 -15 0 -9 9 -15 25 -15 23 0 25 4 25 44 0 23
-5 57 -11 75 -10 28 -15 31 -50 31 -36 0 -41 -3 -55 -35z"/>
<path d="M1180 845 c0 -16 6 -25 15 -25 11 0 15 -12 15 -50 0 -49 1 -50 30
-50 29 0 30 1 30 49 0 51 11 62 53 53 21 -4 23 -48 2 -56 -8 -3 -15 -15 -15
-26 0 -18 6 -20 55 -20 52 0 55 1 55 25 0 16 -6 25 -15 25 -9 0 -15 9 -15 25
0 16 6 25 15 25 9 0 15 9 15 25 l0 25 -120 0 -120 0 0 -25z"/>
<path d="M1440 795 c0 -73 1 -75 25 -75 20 0 25 5 25 25 0 14 5 25 10 25 6 0
10 -11 10 -25 0 -21 5 -25 30 -25 29 0 30 2 30 44 0 25 -4 47 -10 51 -6 4 -6
15 0 30 9 23 7 25 -19 25 -19 0 -31 -7 -39 -22 l-11 -23 0 23 c-1 17 -7 22
-26 22 -24 0 -25 -2 -25 -75z"/>
</g>
</svg>
