<?xml version="1.0" standalone="no"?>
<!DOCTYPE svg PUBLIC "-//W3C//DTD SVG 20010904//EN"
 "http://www.w3.org/TR/2001/REC-SVG-20010904/DTD/svg10.dtd">
<svg version="1.0" xmlns="http://www.w3.org/2000/svg"
 width="200.000000pt" height="200.000000pt" viewBox="0 0 200.000000 200.000000"
 preserveAspectRatio="xMidYMid meet">

<g transform="translate(0.000000,200.000000) scale(0.100000,-0.100000)"
fill="#000000" stroke="none">
<path d="M448 864 c-5 -4 -8 -39 -8 -77 l0 -70 51 5 c28 3 55 12 60 19 11 17
11 90 1 106 -9 15 -93 29 -104 17z m67 -69 c0 -20 -6 -31 -17 -33 -15 -3 -18
4 -18 33 0 29 3 36 18 33 11 -2 17 -13 17 -33z"/>
<path d="M597 864 c-4 -4 -7 -38 -7 -76 l0 -68 50 0 c43 0 50 3 50 20 0 16 -7
20 -30 20 -16 0 -30 5 -30 10 0 6 9 10 20 10 11 0 20 7 20 15 0 8 -9 15 -20
15 -11 0 -20 5 -20 10 0 6 14 10 31 10 24 0 30 4 27 18 -2 12 -14 18 -43 20
-23 2 -44 0 -48 -4z"/>
<path d="M726 863 c-3 -3 -6 -37 -6 -75 0 -61 2 -69 18 -66 11 2 19 15 22 37
4 28 7 32 16 20 7 -8 14 -23 16 -34 2 -12 11 -20 23 -20 18 0 20 7 20 70 0 63
-2 70 -20 70 -12 0 -21 -9 -25 -25 -5 -20 -7 -22 -12 -8 -8 19 -42 40 -52 31z"/>
<path d="M943 862 c-32 -20 -47 -142 -17 -142 9 0 18 9 21 20 7 27 43 27 43
-1 0 -14 5 -19 18 -17 13 3 17 14 16 50 0 72 -40 116 -81 90z m37 -58 c0 -8
-7 -14 -15 -14 -17 0 -18 2 -9 24 7 18 24 12 24 -10z"/>
<path d="M1068 864 c-5 -4 -8 -38 -8 -76 0 -56 3 -68 16 -68 9 0 18 9 21 19 3
11 17 22 31 26 15 4 30 12 34 18 10 15 10 49 0 64 -9 14 -84 28 -94 17z m62
-49 c0 -8 -7 -15 -15 -15 -8 0 -15 7 -15 15 0 8 7 15 15 15 8 0 15 -7 15 -15z"/>
<path d="M1187 864 c-14 -14 -7 -34 13 -34 18 0 20 -7 20 -55 0 -48 2 -55 20
-55 18 0 20 7 20 55 0 49 2 55 21 55 14 0 19 5 17 18 -2 13 -15 18 -53 20 -28
2 -54 0 -58 -4z"/>
<path d="M1323 854 c-4 -10 0 -20 10 -26 22 -12 23 -68 2 -68 -8 0 -15 -9 -15
-20 0 -17 7 -20 45 -20 38 0 45 3 45 20 0 11 -4 20 -10 20 -14 0 -12 68 2 72
6 2 9 12 5 21 -9 23 -75 24 -84 1z"/>
<path d="M1444 856 c-3 -7 -4 -40 -2 -72 2 -46 7 -60 20 -62 12 -2 17 5 20 25
2 17 10 29 21 31 13 3 17 -3 17 -27 0 -24 4 -31 20 -31 17 0 20 7 20 44 0 24
-5 46 -11 48 -9 3 -9 9 0 25 6 13 7 24 2 27 -16 10 -37 -4 -48 -32 -11 -28
-13 -26 -29 26 -5 16 -23 15 -30 -2z"/>
</g>
</svg>
